M48
; DRILL file {KiCad 9.0.7} date 2026-02-14T21:17:18-0400
; FORMAT={-:-/ absolute / metric / decimal}
; #@! TF.CreationDate,2026-02-14T21:17:18-04:00
; #@! TF.GenerationSoftware,Kicad,Pcbnew,9.0.7
; #@! TF.FileFunction,Plated,1,2,PTH
FMAT,2
METRIC
; #@! TA.AperFunction,Plated,PTH,ComponentDrill
T1C0.762
; #@! TA.AperFunction,Plated,PTH,ComponentDrill
T2C1.000
; #@! TA.AperFunction,Plated,PTH,ViaDrill
T3C3.000
%
G90
G05
T1
X80.745Y-60.96
X80.745Y-63.5
X80.745Y-66.04
X80.745Y-68.58
X80.745Y-71.12
X80.745Y-73.66
X80.745Y-76.2
X80.745Y-78.74
X80.745Y-81.28
X80.745Y-83.82
X80.745Y-86.36
X80.745Y-88.9
X80.745Y-91.44
X80.745Y-93.98
X80.745Y-96.52
X106.145Y-60.96
X106.145Y-63.5
X106.145Y-66.04
X106.145Y-68.58
X106.145Y-71.12
X106.145Y-73.66
X106.145Y-76.2
X106.145Y-78.74
X106.145Y-81.28
X106.145Y-83.82
X106.145Y-86.36
X106.145Y-88.9
X106.145Y-91.44
X106.145Y-93.98
X106.145Y-96.52
X111.76Y-60.96
X111.76Y-63.5
X111.76Y-66.04
X111.76Y-68.58
X111.76Y-71.12
X111.76Y-73.66
X113.765Y-83.285
X113.765Y-85.825
X113.765Y-88.365
X113.765Y-90.905
X113.765Y-93.445
X113.765Y-95.985
X113.765Y-98.525
X113.765Y-101.065
X126.465Y-83.285
X126.465Y-85.825
X126.465Y-88.365
X126.465Y-90.905
X126.465Y-93.445
X126.465Y-95.985
X126.465Y-98.525
X126.465Y-101.065
X129.64Y-83.285
X129.64Y-85.825
X134.085Y-83.285
X134.085Y-85.825
X134.085Y-88.365
X134.085Y-90.905
X134.085Y-93.445
X134.085Y-95.985
X134.085Y-98.525
X134.085Y-101.065
X146.785Y-83.285
X146.785Y-85.825
X146.785Y-88.365
X146.785Y-90.905
X146.785Y-93.445
X146.785Y-95.985
X146.785Y-98.525
X146.785Y-101.065
X149.86Y-83.185
X149.86Y-85.725
X154.405Y-83.285
X154.405Y-85.825
X154.405Y-88.365
X154.405Y-90.905
X154.405Y-93.445
X154.405Y-95.985
X154.405Y-98.525
X154.405Y-101.065
X167.105Y-83.285
X167.105Y-85.825
X167.105Y-88.365
X167.105Y-90.905
X167.105Y-93.445
X167.105Y-95.985
X167.105Y-98.525
X167.105Y-101.065
X170.28Y-83.285
X170.28Y-85.825
T2
X170.815Y-93.98
X170.815Y-96.52
T3
X78.105Y-53.34
X78.105Y-107.315
X173.355Y-53.34
X173.355Y-107.315
M30
