0
SECTION
2
HEADER
9
$INSUNITS
70
4
9
$ACADVER
1
AC1014
9
$HANDSEED
5
FFFF
0
ENDSEC
0
SECTION
2
TABLES
0
TABLE
2
VPORT
5
8
100
AcDbSymbolTable
0
ENDTAB
0
TABLE
2
LTYPE
5
5
100
AcDbSymbolTable
0
LTYPE
5
14
100
AcDbSymbolTableRecord
100
AcDbLinetypeTableRecord
2
BYBLOCK
70
0
0
LTYPE
5
15
100
AcDbSymbolTableRecord
100
AcDbLinetypeTableRecord
2
BYLAYER
70
0
0
LTYPE
5
16
100
AcDbSymbolTableRecord
100
AcDbLinetypeTableRecord
2
DASHED
70
0
3
Dashed __ __ __ __ __ __ __ __ __ __ __ __ __ _
72
65
73
2
40
0.75
49
0.5
74
0
49
-0.25
74
0
0
ENDTAB
0
TABLE
2
LAYER
5
2
100
AcDbSymbolTable
70
2
0
LAYER
5
50
100
AcDbSymbolTableRecord
100
AcDbLayerTableRecord
2
0
70
0
62
7
6
CONTINUOUS
0
ENDTAB
0
TABLE
2
STYLE
5
3
100
AcDbSymbolTable
70
1
0
STYLE
5
11
100
AcDbSymbolTableRecord
100
AcDbTextStyleTableRecord
2
STANDARD
70
0
0
ENDTAB
0
TABLE
2
VIEW
5
6
100
AcDbSymbolTable
70
0
0
ENDTAB
0
TABLE
2
UCS
5
7
100
AcDbSymbolTable
70
0
0
ENDTAB
0
TABLE
2
APPID
5
9
100
AcDbSymbolTable
70
2
0
APPID
5
12
100
AcDbSymbolTableRecord
100
AcDbRegAppTableRecord
2
ACAD
70
0
0
ENDTAB
0
TABLE
2
DIMSTYLE
5
A
100
AcDbSymbolTable
70
1
0
ENDTAB
0
TABLE
2
BLOCK_RECORD
5
1
100
AcDbSymbolTable
70
1
0
BLOCK_RECORD
5
1F
100
AcDbSymbolTableRecord
100
AcDbBlockTableRecord
2
*MODEL_SPACE
0
BLOCK_RECORD
5
1B
100
AcDbSymbolTableRecord
100
AcDbBlockTableRecord
2
*PAPER_SPACE
0
ENDTAB
0
ENDSEC
0
SECTION
2
BLOCKS
0
BLOCK
5
20
100
AcDbEntity
100
AcDbBlockBegin
2
*MODEL_SPACE
0
ENDBLK
5
21
100
AcDbEntity
100
AcDbBlockEnd
0
BLOCK
5
1C
100
AcDbEntity
100
AcDbBlockBegin
2
*PAPER_SPACE
0
ENDBLK
5
1D
100
AcDbEntity
100
AcDbBlockEnd
0
ENDSEC
0
SECTION
2
ENTITIES
0
SPLINE
5
100
100
AcDbEntity
8
0
100
AcDbSpline
70
4
71
5
72
79
73
73
74
0
42
0.000000001
43
0.0000000001
44
0.0000000001
40
0.036528244559707809
40
0.036528244559707809
40
0.036528244559707809
40
0.036528244559707809
40
0.036528244559707809
40
0.036528244559707809
40
0.042857142857142858
40
0.057142857142857141
40
0.071428571428571425
40
0.085714285714285715
40
0.10000000000000001
40
0.1142857142857143
40
0.12857142857142859
40
0.14285714285714288
40
0.15714285714285717
40
0.17142857142857146
40
0.18571428571428575
40
0.20000000000000004
40
0.21428571428571433
40
0.22857142857142862
40
0.24285714285714291
40
0.25714285714285717
40
0.27142857142857146
40
0.28571428571428575
40
0.30000000000000004
40
0.31428571428571433
40
0.32857142857142863
40
0.34285714285714292
40
0.35714285714285721
40
0.3714285714285715
40
0.38571428571428579
40
0.40000000000000008
40
0.41428571428571437
40
0.42857142857142866
40
0.44285714285714295
40
0.45714285714285724
40
0.47142857142857153
40
0.48571428571428582
40
0.50000000000000011
40
0.51428571428571435
40
0.52857142857142858
40
0.54285714285714282
40
0.55714285714285705
40
0.57142857142857129
40
0.58571428571428552
40
0.59999999999999976
40
0.61428571428571399
40
0.62857142857142823
40
0.64285714285714246
40
0.6571428571428567
40
0.67142857142857093
40
0.68571428571428517
40
0.6999999999999994
40
0.71428571428571364
40
0.72857142857142787
40
0.74285714285714211
40
0.75714285714285634
40
0.77142857142857058
40
0.78571428571428481
40
0.79999999999999905
40
0.81428571428571328
40
0.82857142857142752
40
0.84285714285714175
40
0.85714285714285599
40
0.87142857142857022
40
0.88571428571428445
40
0.89999999999999869
40
0.91428571428571292
40
0.92857142857142716
40
0.94285714285714139
40
0.95714285714285563
40
0.97142857142856986
40
0.9857142857142841
40
1
40
1
40
1
40
1
40
1
40
1
41
1
41
1
41
1
41
1
41
1
41
1
41
1
41
1
41
1
41
1
41
1
41
1
41
1
41
1
41
1
41
1
41
1
41
1
41
1
41
1
41
1
41
1
41
1
41
1
41
1
41
1
41
1
41
1
41
1
41
1
41
1
41
1
41
1
41
1
41
1
41
1
41
1
41
1
41
1
41
1
41
1
41
1
41
1
41
1
41
1
41
1
41
1
41
1
41
1
41
1
41
1
41
1
41
1
41
1
41
1
41
1
41
1
41
1
41
1
41
1
41
1
41
1
41
1
41
1
41
1
41
1
41
1
41
1
41
1
41
1
41
1
41
1
41
1
10
40.453416097231838
20
-12.691514281958415
30
0
10
40.453343692755581
20
-12.689728637227102
30
0
10
40.453089515696014
20
-12.683912001103362
30
0
10
40.452562519172872
20
-12.674062311454794
30
0
10
40.451624520381706
20
-12.660175772904427
30
0
10
40.450167648875166
20
-12.64224726576556
30
0
10
40.448339883503124
20
-12.622061003549987
30
0
10
40.446380244814286
20
-12.601866046752326
30
0
10
40.444291035990943
20
-12.58166413033142
30
0
10
40.442041289610216
20
-12.561457009138124
30
0
10
40.439588140515362
20
-12.541246287597181
30
0
10
40.436898833503385
20
-12.521033239807856
30
0
10
40.433969883165453
20
-12.500818659466686
30
0
10
40.430816825697427
20
-12.480603004982651
30
0
10
40.427466282859299
20
-12.46038652191546
30
0
10
40.423947382740252
20
-12.440169370556211
30
0
10
40.420282948926918
20
-12.419951758570045
30
0
10
40.416482291259747
20
-12.39973404973988
30
0
10
40.412545883399844
20
-12.379516701349493
30
0
10
40.408468803579822
20
-12.359300219305101
30
0
10
40.404244528316838
20
-12.339085108101175
30
0
10
40.399868845902574
20
-12.318871819246899
30
0
10
40.395342908789345
20
-12.298660711447473
30
0
10
40.390671202489735
20
-12.27845208057888
30
0
10
40.38586013690275
20
-12.258246181107475
30
0
10
40.38091645579896
20
-12.238043249950334
30
0
10
40.375845595256393
20
-12.217843531119595
30
0
10
40.37065045754651
20
-12.197647294349782
30
0
10
40.365332313428695
20
-12.17745482311701
30
0
10
40.359891418647422
20
-12.157266406751848
30
0
10
40.354327715418925
20
-12.13708233129319
30
0
10
40.348641558512625
20
-12.116902870016437
30
0
10
40.34283424794944
20
-12.096728276580308
30
0
10
40.336907645575394
20
-12.076558790729397
30
0
10
40.3308639222153
20
-12.05639464217656
30
0
10
40.324705266203978
20
-12.036236054999797
30
0
10
40.318433583351123
20
-12.016083252114013
30
0
10
40.312050280412365
20
-11.995936458621765
30
0
10
40.305556433941788
20
-11.975795900044211
30
0
10
40.298952904196419
20
-11.955661801261005
30
0
10
40.292240466201932
20
-11.935534385171188
30
0
10
40.28541994547605
20
-11.915413871319846
30
0
10
40.2784923181853
20
-11.89530047480163
30
0
10
40.271458639958908
20
-11.875194406739523
30
0
10
40.26431999968775
20
-11.855095874467985
30
0
10
40.257077466248283
20
-11.835005081806344
30
0
10
40.249732034632501
20
-11.814922229157041
30
0
10
40.242284586233737
20
-11.794847513844012
30
0
10
40.234735921393472
20
-11.77478113156727
30
0
10
40.227086782804868
20
-11.754723277704338
30
0
10
40.219337882219861
20
-11.734674148513449
30
0
10
40.211489928578843
20
-11.714633942543307
30
0
10
40.203543649893618
20
-11.694602861219849
30
0
10
40.195499775572536
20
-11.67458110529563
30
0
10
40.187359024100132
20
-11.654568871657933
30
0
10
40.179122089793822
20
-11.634566350136573
30
0
10
40.170789629569732
20
-11.614573719742642
30
0
10
40.162362253523568
20
-11.594591146499207
30
0
10
40.153840540831439
20
-11.574618792392208
30
0
10
40.145225053685714
20
-11.554656823237945
30
0
10
40.136516352142031
20
-11.534705416574608
30
0
10
40.127715010432283
20
-11.514764770230189
30
0
10
40.118821629997719
20
-11.494835108388564
30
0
10
40.109836814187176
20
-11.474916662829566
30
0
10
40.100761146506841
20
-11.455009656007327
30
0
10
40.091595168282019
20
-11.435114283555984
30
0
10
40.082339356896838
20
-11.41523069642356
30
0
10
40.072994105216239
20
-11.39535898443663
30
0
10
40.063559720610002
20
-11.375499192023803
30
0
10
40.055941082876856
20
-11.359620904271866
30
0
10
40.050187153584758
20
-11.347717556592606
30
0
10
40.046333450624083
20
-11.339784376516572
30
0
10
40.044402161618905
20
-11.335818382739514
30
0
0
ARC
5
101
100
AcDbEntity
8
0
100
AcDbCircle
10
39.79350694547071
20
-23.999999999996909
30
0
40
12.666666666663573
210
0
220
-0
230
1
100
AcDbArc
50
88.865038646634716
51
91.134961353365355
0
SPLINE
5
102
100
AcDbEntity
8
0
100
AcDbSpline
70
4
71
5
72
79
73
73
74
0
42
0.000000001
43
0.0000000001
44
0.0000000001
40
-1
40
-1
40
-1
40
-1
40
-1
40
-1
40
-0.9857142857142841
40
-0.97142857142856986
40
-0.95714285714285563
40
-0.94285714285714139
40
-0.92857142857142716
40
-0.91428571428571292
40
-0.89999999999999869
40
-0.88571428571428445
40
-0.87142857142857022
40
-0.85714285714285599
40
-0.84285714285714175
40
-0.82857142857142752
40
-0.81428571428571328
40
-0.79999999999999905
40
-0.78571428571428481
40
-0.77142857142857058
40
-0.75714285714285634
40
-0.74285714285714211
40
-0.72857142857142787
40
-0.71428571428571364
40
-0.6999999999999994
40
-0.68571428571428517
40
-0.67142857142857093
40
-0.6571428571428567
40
-0.64285714285714246
40
-0.62857142857142823
40
-0.61428571428571399
40
-0.59999999999999976
40
-0.58571428571428552
40
-0.57142857142857129
40
-0.55714285714285705
40
-0.54285714285714282
40
-0.52857142857142858
40
-0.51428571428571435
40
-0.50000000000000011
40
-0.48571428571428582
40
-0.47142857142857153
40
-0.45714285714285724
40
-0.44285714285714295
40
-0.42857142857142866
40
-0.41428571428571437
40
-0.40000000000000008
40
-0.38571428571428579
40
-0.3714285714285715
40
-0.35714285714285721
40
-0.34285714285714292
40
-0.32857142857142863
40
-0.31428571428571433
40
-0.30000000000000004
40
-0.28571428571428575
40
-0.27142857142857146
40
-0.25714285714285717
40
-0.24285714285714291
40
-0.22857142857142862
40
-0.21428571428571433
40
-0.20000000000000004
40
-0.18571428571428575
40
-0.17142857142857146
40
-0.15714285714285717
40
-0.14285714285714288
40
-0.12857142857142859
40
-0.1142857142857143
40
-0.10000000000000001
40
-0.085714285714285715
40
-0.071428571428571425
40
-0.057142857142857141
40
-0.042857142857142858
40
-0.036528244559710966
40
-0.036528244559710966
40
-0.036528244559710966
40
-0.036528244559710966
40
-0.036528244559710966
40
-0.036528244559710966
41
1
41
1
41
1
41
1
41
1
41
1
41
1
41
1
41
1
41
1
41
1
41
1
41
1
41
1
41
1
41
1
41
1
41
1
41
1
41
1
41
1
41
1
41
1
41
1
41
1
41
1
41
1
41
1
41
1
41
1
41
1
41
1
41
1
41
1
41
1
41
1
41
1
41
1
41
1
41
1
41
1
41
1
41
1
41
1
41
1
41
1
41
1
41
1
41
1
41
1
41
1
41
1
41
1
41
1
41
1
41
1
41
1
41
1
41
1
41
1
41
1
41
1
41
1
41
1
41
1
41
1
41
1
41
1
41
1
41
1
41
1
41
1
41
1
10
39.542611729322509
20
-11.335818382739514
30
0
10
39.540680440317345
20
-11.339784376516571
30
0
10
39.536826737356662
20
-11.347717556592606
30
0
10
39.531072808064565
20
-11.359620904271866
30
0
10
39.523454170331419
20
-11.375499192023803
30
0
10
39.514019785725189
20
-11.39535898443663
30
0
10
39.50467453404459
20
-11.415230696423556
30
0
10
39.495418722659409
20
-11.435114283555984
30
0
10
39.486252744434587
20
-11.455009656007327
30
0
10
39.477177076754252
20
-11.474916662829566
30
0
10
39.468192260943702
20
-11.494835108388564
30
0
10
39.459298880509138
20
-11.514764770230189
30
0
10
39.450497538799389
20
-11.534705416574608
30
0
10
39.441788837255714
20
-11.554656823237945
30
0
10
39.433173350109982
20
-11.574618792392206
30
0
10
39.42465163741786
20
-11.594591146499207
30
0
10
39.416224261371696
20
-11.614573719742642
30
0
10
39.407891801147606
20
-11.634566350136575
30
0
10
39.399654866841296
20
-11.654568871657933
30
0
10
39.391514115368885
20
-11.67458110529563
30
0
10
39.38347024104781
20
-11.694602861219852
30
0
10
39.375523962362585
20
-11.714633942543307
30
0
10
39.36767600872156
20
-11.734674148513447
30
0
10
39.35992710813656
20
-11.754723277704336
30
0
10
39.352277969547956
20
-11.774781131567266
30
0
10
39.344729304707691
20
-11.794847513844012
30
0
10
39.33728185630892
20
-11.814922229157041
30
0
10
39.329936424693138
20
-11.835005081806342
30
0
10
39.322693891253678
20
-11.855095874467983
30
0
10
39.31555525098252
20
-11.875194406739523
30
0
10
39.308521572756121
20
-11.895300474801632
30
0
10
39.30159394546537
20
-11.915413871319844
30
0
10
39.294773424739489
20
-11.935534385171184
30
0
10
39.288060986745009
20
-11.955661801261009
30
0
10
39.28145745699964
20
-11.975795900044208
30
0
10
39.274963610529056
20
-11.995936458621763
30
0
10
39.268580307590298
20
-12.016083252114015
30
0
10
39.26230862473745
20
-12.036236054999801
30
0
10
39.25614996872612
20
-12.056394642176562
30
0
10
39.250106245366034
20
-12.076558790729393
30
0
10
39.24417964299198
20
-12.096728276580306
30
0
10
39.238372332428796
20
-12.116902870016439
30
0
10
39.232686175522495
20
-12.13708233129319
30
0
10
39.227122472294006
20
-12.157266406751848
30
0
10
39.221681577512733
20
-12.177454823117008
30
0
10
39.216363433394918
20
-12.197647294349782
30
0
10
39.211168295685034
20
-12.217843531119595
30
0
10
39.206097435142468
20
-12.238043249950334
30
0
10
39.201153754038671
20
-12.258246181107477
30
0
10
39.196342688451693
20
-12.278452080578878
30
0
10
39.191670982152075
20
-12.298660711447473
30
0
10
39.187145045038847
20
-12.318871819246899
30
0
10
39.182769362624583
20
-12.339085108101177
30
0
10
39.178545087361599
20
-12.359300219305101
30
0
10
39.174468007541577
20
-12.379516701349491
30
0
10
39.170531599681681
20
-12.39973404973988
30
0
10
39.166730942014503
20
-12.419951758570047
30
0
10
39.163066508201169
20
-12.440169370556212
30
0
10
39.159547608082129
20
-12.460386521915463
30
0
10
39.156197065243994
20
-12.480603004982653
30
0
10
39.153044007775968
20
-12.500818659466686
30
0
10
39.150115057438043
20
-12.521033239807855
30
0
10
39.147425750426059
20
-12.541246287597181
30
0
10
39.144972601331204
20
-12.561457009138124
30
0
10
39.142722854950478
20
-12.58166413033142
30
0
10
39.140633646127135
20
-12.601866046752326
30
0
10
39.138674007438297
20
-12.622061003549989
30
0
10
39.136846242066255
20
-12.642247265765565
30
0
10
39.135389370559722
20
-12.660175772904431
30
0
10
39.134451371768556
20
-12.674062311454792
30
0
10
39.133924375245414
20
-12.683912001103359
30
0
10
39.13367019818584
20
-12.689728637227105
30
0
10
39.13359779370959
20
-12.691514281958414
30
0
0
SPLINE
5
103
100
AcDbEntity
8
0
100
AcDbSpline
70
0
71
3
72
9
73
5
74
0
42
0.000000001
43
0.0000000001
44
0.0000000001
40
-1
40
-1
40
-1
40
-1
40
-0.5
40
-0
40
-0
40
-0
40
-0
10
38.9489127644325
20
-12.882836633864001
30
0
10
38.997254922420275
20
-12.879163978889832
30
0
10
39.090870410728741
20
-12.835069349824632
30
0
10
39.131633577084408
20
-12.739955942608352
30
0
10
39.13359779370959
20
-12.691514281958414
30
0
0
LWPOLYLINE
5
104
100
AcDbEntity
8
0
100
AcDbPolyline
90
2
70
1
43
0.0
10
38.9489127644325
20
-12.882836633864001
10
40.638101126508907
20
-12.882836633864001
0
SPLINE
5
105
100
AcDbEntity
8
0
100
AcDbSpline
70
0
71
3
72
14
73
10
74
0
42
0.000000001
43
0.0000000001
44
0.0000000001
40
0
40
0
40
0
40
0
40
0.0078128894677384625
40
0.0078128894677384625
40
0.015625778935477057
40
0.015625778935477057
40
0.022397872826827363
40
0.022397872826827363
40
0.029169966718177631
40
0.029169966718177631
40
0.029169966718177631
40
0.029169966718177631
10
40.453416097231838
20
-12.691514281958419
30
0
10
40.454471222579187
20
-12.717535863979721
30
0
10
40.460598853955844
20
-12.743102576051204
30
0
10
40.482309316775627
20
-12.790448113176788
30
0
10
40.49768458436111
20
-12.811774289090661
30
0
10
40.53320926785976
20
-12.844964223507542
30
0
10
40.552194738011863
20
-12.85747172240098
30
0
10
40.59353465981529
20
-12.875618041454961
30
0
10
40.615592344377788
20
-12.881126594550549
30
0
10
40.638101126508921
20
-12.882836633864006
30
0
0
ENDSEC
0
SECTION
2
OBJECTS
0
DICTIONARY
5
C
100
AcDbDictionary
3
ACAD_GROUP
350
D
3
ACAD_MLINESTYLE
350
17
0
DICTIONARY
5
D
100
AcDbDictionary
0
DICTIONARY
5
1A
330
C
100
AcDbDictionary
0
DICTIONARY
5
17
100
AcDbDictionary
0
ENDSEC
0
EOF
